<?xml version="1.0" standalone="no"?>
<!DOCTYPE svg PUBLIC "-//W3C//DTD SVG 20010904//EN"
 "http://www.w3.org/TR/2001/REC-SVG-20010904/DTD/svg10.dtd">
<svg version="1.0" xmlns="http://www.w3.org/2000/svg"
 width="724.000000pt" height="483.000000pt" viewBox="0 0 724.000000 483.000000"
 preserveAspectRatio="xMidYMid meet">
<metadata>
Created by potrace 1.16, written by Peter Selinger 2001-2019
</metadata>
<g transform="translate(0.000000,483.000000) scale(0.100000,-0.100000)"
fill="#000000" stroke="none">
<path d="M0 3302 c0 -1516 0 -1528 20 -1542 11 -8 20 -20 20 -26 0 -7 6 -14
14 -17 9 -3 17 -29 21 -66 6 -51 10 -61 26 -61 16 0 19 -7 19 -44 0 -52 8 -76
24 -76 6 0 42 -60 81 -133 55 -104 71 -145 76 -192 4 -33 15 -87 25 -120 16
-51 19 -96 19 -304 0 -187 -3 -245 -12 -248 -9 -3 -13 -25 -13 -64 0 -33 -5
-68 -10 -79 -6 -11 -14 -29 -20 -40 -5 -11 -10 -29 -10 -40 0 -23 -30 -90 -41
-90 -4 0 -10 -13 -14 -29 -3 -16 -12 -35 -20 -41 -8 -6 -11 -18 -8 -26 3 -8 1
-14 -4 -14 -6 0 -15 -11 -21 -25 l-12 -25 996 0 c943 0 995 1 992 18 -2 9 -10
18 -18 18 -33 3 -34 5 -16 19 31 23 45 18 52 -20 6 -35 6 -35 60 -35 46 0 54
3 54 18 0 23 29 51 56 54 24 4 31 -16 7 -21 -27 -5 -42 -21 -36 -37 4 -10 23
-14 69 -14 l64 0 -6 44 c-6 39 -3 48 19 70 14 14 35 26 46 26 18 0 61 -43 61
-61 0 -4 -20 -17 -45 -28 -52 -23 -61 -51 -16 -51 16 0 34 7 41 15 16 19 30
19 30 0 0 -13 107 -15 903 -15 890 0 903 0 920 20 16 19 37 27 37 14 0 -4 -8
-13 -17 -20 -16 -12 -13 -13 25 -14 46 0 46 0 25 58 -3 6 0 12 5 12 6 0 14
-16 18 -35 5 -30 10 -35 35 -35 34 0 33 -4 14 50 -18 50 -18 50 -6 50 5 0 14
-22 21 -50 7 -30 17 -50 26 -50 18 0 18 17 -1 70 -18 50 -18 53 -5 45 6 -3 10
-1 10 5 0 7 7 10 15 6 8 -3 19 2 24 12 6 11 13 14 19 7 9 -9 42 -101 42 -114
-1 -14 -21 27 -30 62 -6 20 -16 37 -22 37 -10 0 -8 -26 7 -100 5 -21 -5 1 -31
70 -5 13 -7 13 -15 -1 -5 -11 -4 -30 5 -55 l13 -39 327 -3 326 -2 0 24 c0 22
31 56 51 56 4 0 10 -18 14 -40 4 -23 12 -40 20 -40 10 0 12 13 8 54 -6 57 3
72 36 61 23 -7 35 -47 18 -57 -40 -25 -42 -27 -29 -40 9 -9 15 -9 24 0 17 17
31 15 24 -3 -5 -13 101 -15 904 -15 l910 0 0 1605 c0 1524 -1 1604 -17 1598
-10 -4 -29 -13 -43 -20 -14 -7 -30 -13 -35 -13 -6 0 -17 -10 -25 -21 -46 -67
-84 -75 -125 -27 l-27 31 -22 -27 c-17 -22 -30 -28 -59 -28 -21 0 -44 6 -52
12 -12 10 -15 10 -15 0 0 -7 -8 -10 -18 -8 -10 3 -23 0 -29 -7 -18 -19 -73 -6
-85 21 -14 31 -3 68 24 81 38 17 81 -8 90 -52 3 -17 6 -16 23 12 26 44 58 56
119 44 41 -7 55 -6 83 10 19 11 38 17 44 14 5 -4 9 -2 9 3 0 15 73 31 118 25
l42 -6 0 792 0 791 -3620 0 -3620 0 0 -1528z m1009 1411 c13 -49 26 -94 29
-100 2 -7 -1 -13 -7 -13 -6 0 -11 7 -11 15 0 12 -5 11 -29 -3 -29 -16 -31 -16
-55 7 -31 30 -46 70 -35 99 7 17 16 22 44 22 39 0 39 -1 25 34 -7 19 -6 26 3
26 7 0 23 -37 36 -87z m162 -2 c32 -33 38 -71 13 -95 -41 -41 -124 14 -124 82
0 49 66 57 111 13z m1174 -16 c2 -38 -11 -55 -42 -55 -14 0 -21 -4 -18 -10 3
-5 21 -10 39 -10 63 0 87 -62 31 -76 -54 -13 -84 22 -86 98 0 10 -4 20 -10 23
-13 9 -11 39 3 53 7 7 28 11 47 10 30 -3 35 -7 36 -33z m-45 -1215 c40 -40 40
-110 0 -120 -21 -5 -25 -11 -22 -39 5 -62 -21 -26 -49 69 -16 52 -29 96 -29
98 0 2 8 1 18 -2 9 -3 24 -1 32 4 21 14 27 13 50 -10z m-140 -481 c32 -102 33
-122 5 -99 -9 8 -15 8 -15 2 0 -6 -9 -14 -21 -17 -49 -16 -100 85 -64 125 10
11 27 20 37 20 16 0 18 5 12 35 -4 22 -2 35 4 35 6 0 25 -45 42 -101z m400
-369 c41 -41 38 -115 -5 -126 -23 -6 -25 -10 -19 -40 4 -21 2 -34 -4 -34 -13
0 -74 189 -66 202 3 5 10 6 15 3 5 -4 17 -1 26 4 25 15 30 14 53 -9z m527
-332 c-2 -7 0 -21 5 -30 12 -24 -7 -58 -33 -58 -12 0 -19 -5 -17 -12 2 -6 21
-12 42 -12 68 -2 76 -60 11 -78 -44 -11 -62 5 -70 64 -4 29 -12 60 -18 69 -14
22 -3 47 25 59 34 13 60 12 55 -2z m-1291 -245 c3 -16 16 -63 29 -105 23 -76
23 -97 0 -78 -9 7 -16 6 -25 -5 -31 -37 -79 -8 -95 58 -9 34 15 74 47 79 20 3
23 8 20 41 -3 43 15 50 24 10z m184 -45 c24 -40 25 -66 4 -96 -21 -31 -78 -31
-99 1 -27 42 -29 83 -6 106 33 33 77 28 101 -11z m1370 -553 c-8 -9 -8 -15 0
-20 20 -13 10 -46 -20 -63 -43 -24 -37 -34 15 -27 42 7 44 6 51 -21 9 -34 -23
-64 -66 -64 -27 0 -44 21 -39 46 1 5 0 16 -3 24 -35 101 -32 117 24 136 38 13
54 8 38 -11z m3386 -180 c3 -14 3 -33 -1 -42 -5 -10 -7 -23 -6 -30 3 -18 -18
-26 -34 -13 -21 17 -69 -14 -62 -40 5 -21 -34 -60 -61 -60 -10 0 -27 -7 -38
-15 -10 -8 -29 -15 -41 -15 -12 0 -27 -9 -33 -19 -5 -11 -22 -21 -37 -23 -17
-2 -32 -12 -38 -25 -5 -12 -20 -23 -33 -26 -35 -7 -50 37 -26 81 9 17 19 30
22 27 3 -2 14 2 26 10 26 19 45 19 66 0 10 -9 25 -13 34 -9 21 8 21 24 0 24
-23 0 -11 24 14 28 12 2 34 16 50 31 16 15 34 25 39 24 5 -2 18 12 29 32 10
19 23 35 30 35 6 0 21 11 34 25 30 32 58 32 66 0z m-4650 -202 c9 -32 22 -80
30 -107 17 -61 17 -59 -2 -52 -8 3 -22 -1 -30 -9 -41 -40 -99 0 -98 68 2 42
29 77 60 77 11 0 13 9 8 40 -10 62 13 49 32 -17z m168 8 c9 -10 19 -34 23 -54
4 -29 1 -40 -20 -61 -15 -14 -35 -26 -45 -26 -58 0 -94 94 -52 138 26 27 71
29 94 3z m-401 -586 c9 -8 21 -31 27 -50 8 -23 18 -35 30 -35 28 0 34 -19 15
-40 -16 -18 -17 -26 -5 -80 11 -52 11 -63 -4 -85 -17 -26 -50 -33 -61 -14 -4
6 2 21 14 33 20 22 21 25 6 66 -9 24 -15 51 -14 60 1 8 -5 31 -13 50 -8 19
-18 43 -21 53 -4 9 -15 17 -26 17 -22 0 -35 15 -26 30 9 15 62 12 78 -5z"/>
</g>
</svg>
